<svg xmlns="http://www.w3.org/2000/svg" viewBox="0 0 1920 1080">
  <defs>
    <pattern id="grid" width="40" height="40" patternUnits="userSpaceOnUse">
      <path d="M 40 0 L 0 0 0 40" fill="none" stroke="#FFFFFF" stroke-width="0.5" opacity="0.2"/>
    </pattern>
  </defs>

  <!-- 背景 -->
  <rect width="100%" height="100%" fill="#0e3f8d"/>

  <!-- グリッドパターン -->
  <rect width="100%" height="100%" fill="url(#grid)"/>

  <!-- 左上の枠（1.5倍に拡大） -->
  <path d="M 15 15 L 515 15 L 515 70 L 70 70 L 70 265 L 15 265 Z" fill="#FFFFFF" opacity="0.2"/>

  <!-- 右下の枠（1.5倍に拡大） -->
  <path d="M 1905 1065 L 1405 1065 L 1405 1010 L 1850 1010 L 1850 815 L 1905 815 Z" fill="#FFFFFF" opacity="0.2"/>

  <!-- ランダムに配置された幾何学的形状 -->
  <rect x="150" y="300" width="100" height="100" fill="#FFFFFF" opacity="0.3" transform="rotate(15, 200, 350)"/>
  <circle cx="1700" cy="200" r="80" fill="#a8baec" opacity="0.7"/>
  <polygon points="800,600 900,750 700,750" fill="#FFFFFF" opacity="0.2" transform="rotate(-10, 800, 675)"/>
  <rect x="1200" y="800" width="120" height="120" fill="#e0e9f9" opacity="0.5" transform="rotate(30, 1260, 860)"/>
  <circle cx="300" cy="900" r="60" fill="#FFFFFF" opacity="0.3"/>
  <polygon points="1600,400 1700,500 1500,500" fill="#a8baec" opacity="0.7" transform="rotate(5, 1600, 450)"/>
  <rect x="500" y="200" width="80" height="80" fill="#FFFFFF" opacity="0.2" transform="rotate(-20, 540, 240)"/>
  <circle cx="1100" cy="700" r="50" fill="#e0e9f9" opacity="0.5"/>
  <polygon points="400,800 500,900 300,900" fill="#a8baec" opacity="0.7" transform="rotate(25, 400, 850)"/>
  <rect x="1500" y="100" width="90" height="90" fill="#e0e9f9" opacity="0.5" transform="rotate(10, 1545, 145)"/>
</svg>
